<?xml version="1.0" encoding="utf-8"?>
<!-- Generator: Adobe Illustrator 16.0.0, SVG Export Plug-In . SVG Version: 6.00 Build 0)  -->
<!DOCTYPE svg PUBLIC "-//W3C//DTD SVG 1.1//EN" "http://www.w3.org/Graphics/SVG/1.1/DTD/svg11.dtd">
<svg version="1.1" id="Calque_1" xmlns="http://www.w3.org/2000/svg" xmlns:xlink="http://www.w3.org/1999/xlink" x="0px" y="0px"
	 width="500px" height="70px" viewBox="0 0 500 70" enable-background="new 0 0 500 70" xml:space="preserve">
<g>
	<path fill="#19A499" d="M460.061,62.389c-3.258-1.863-5.819-4.451-7.683-7.768c-1.867-3.312-2.803-7.055-2.803-11.223
		c0-4.166,0.936-7.904,2.803-11.223c1.862-3.319,4.425-5.909,7.683-7.771c3.264-1.863,6.92-2.793,10.979-2.793
		c4.052,0,7.713,0.931,10.967,2.793c3.268,1.862,5.82,4.451,7.693,7.771c1.859,3.317,2.8,7.057,2.8,11.223
		c0,4.168-0.939,7.908-2.8,11.223c-1.873,3.314-4.427,5.904-7.693,7.768c-3.254,1.861-6.915,2.799-10.967,2.799
		C466.979,65.188,463.323,64.25,460.061,62.389z M479.87,59.184c2.604-1.535,4.656-3.666,6.172-6.414
		c1.499-2.736,2.262-5.861,2.262-9.369c0-3.51-0.763-6.629-2.262-9.376c-1.516-2.736-3.566-4.877-6.172-6.408
		c-2.607-1.537-5.547-2.301-8.83-2.301c-3.292,0-6.235,0.765-8.841,2.301c-2.608,1.53-4.661,3.671-6.17,6.408
		c-1.504,2.748-2.254,5.869-2.254,9.376s0.75,6.633,2.254,9.369c1.509,2.748,3.562,4.879,6.17,6.414
		c2.604,1.537,5.549,2.303,8.841,2.303C474.323,61.486,477.263,60.721,479.87,59.184z"/>
	<g>
		<path opacity="0.4" fill="#61A9DE" enable-background="new    " d="M410.867,47.018V30.431c1.739-2.513,3.932-4.555,6.635-6.064
			c3.294-1.836,7.021-2.754,11.188-2.754c3.004,0,5.755,0.539,8.286,1.559l-3.141,2.87c-1.62-0.472-3.325-0.728-5.146-0.728
			c-3.342,0-6.347,0.752-9.003,2.262c-2.658,1.503-4.74,3.63-6.247,6.368c-1.506,2.744-2.263,5.896-2.263,9.457
			c0,1.082,0.097,2.113,0.233,3.119L410.867,47.018z M436.212,59.884c-2.274,1.066-4.778,1.603-7.521,1.603
			c-3.342,0-6.347-0.752-9.003-2.262c-2.658-1.509-4.74-3.629-6.247-6.371c-0.388-0.698-0.719-1.424-1.005-2.174l-1.567,1.434v4.175
			c1.739,2.517,3.932,4.567,6.635,6.103c3.294,1.86,7.021,2.797,11.188,2.797c3.448,0,6.588-0.674,9.415-2.015
			c0.204-0.101,0.39-0.228,0.591-0.331l-2.395-3.006C436.271,59.85,436.244,59.866,436.212,59.884z"/>
		<polygon fill="#61A9DE" points="442.024,60.607 439.635,57.604 425.088,39.289 437.514,27.63 440.382,24.946 443.586,21.94 
			438.324,21.94 436.977,23.172 433.836,26.042 411.411,46.52 410.867,47.018 410.867,30.431 410.867,3.854 406.758,3.854 
			406.758,64.854 410.867,64.854 410.867,56.287 410.867,52.111 412.436,50.68 422.048,41.918 436.302,59.835 438.695,62.841 
			440.296,64.854 445.395,64.854 		"/>
	</g>
	<path fill="#A3C308" d="M374.085,61.627c-0.3,0-0.598-0.008-0.89-0.021c-0.247-0.014-0.481-0.029-0.729-0.054
		c-1.065-0.089-2.113-0.276-3.115-0.543c-7.22-1.938-12.665-8.19-13.404-15.821c-0.062-0.59-0.091-1.184-0.091-1.785
		c0-0.576,0.029-1.144,0.085-1.709c3.404,2.209,7.469,3.494,11.831,3.494c1.467,0,2.908-0.146,4.296-0.428
		c2.666-0.531,5.156-1.552,7.378-2.964c0.088-0.058,0.183-0.114,0.267-0.174c0.428-0.276,0.842-0.576,1.249-0.883
		c2.8-1.748,6.102-2.759,9.646-2.759c0.21,0,0.419,0.004,0.627,0.014c0.088,0,0.17,0.002,0.26,0.004
		c1.322,0.066,2.6,0.273,3.839,0.604c-0.05-0.229-0.097-0.449-0.161-0.672c-0.287-1.115-0.662-2.201-1.118-3.24
		c-1.159-2.666-2.848-5.048-4.914-7.03c-0.991-0.947-2.07-1.804-3.222-2.55c-3.416-2.209-7.473-3.494-11.833-3.494
		c-9.132,0-16.953,5.623-20.195,13.591c-0.51,1.259-0.907,2.577-1.181,3.936c-0.13,0.686-0.233,1.381-0.303,2.09
		c-0.011,0.129-0.023,0.263-0.032,0.39c-0.055,0.586-0.077,1.183-0.077,1.78c0,0.055,0.005,0.105,0.005,0.154
		c0,0.551,0.027,1.092,0.072,1.631c0.809,10.047,8.444,18.168,18.263,19.729c0.604,0.095,1.217,0.167,1.834,0.207
		c0.533,0.043,1.069,0.062,1.614,0.062c0.221,0,0.439,0,0.653-0.006c6.73-0.197,12.669-3.464,16.53-8.426l-2.563-2.51
		C385.39,58.714,380.082,61.627,374.085,61.627z M373.271,30.84c-6.015,0-11.559,2.028-15.972,5.447
		c2.774-6.535,9.24-11.112,16.784-11.112c4.158,0,7.992,1.399,11.062,3.746c1.024,0.792,1.97,1.687,2.815,2.673
		c0.751,0.877,1.407,1.828,1.986,2.835c-0.061,0-0.112,0.005-0.166,0.007c-0.953,0.033-1.884,0.13-2.8,0.282
		c-0.223,0.039-0.45,0.081-0.669,0.122c-2.676,0.536-5.16,1.557-7.379,2.973c-0.523,0.326-1.033,0.681-1.521,1.054
		c-2.796,1.745-6.099,2.757-9.644,2.757h-0.005c-3.927,0-7.562-1.247-10.548-3.359c5.183-4.369,11.868-7.002,19.177-7.002
		c0.636,0,1.271,0.025,1.893,0.062C376.668,31.007,374.99,30.84,373.271,30.84z"/>
	<path fill="#A1242F" d="M339.714,64.157c-0.685-0.687-1.033-1.521-1.033-2.509c0-0.986,0.35-1.805,1.033-2.465
		c0.68-0.66,1.489-0.984,2.424-0.984c0.929,0,1.737,0.324,2.429,0.984c0.685,0.66,1.023,1.479,1.023,2.465s-0.34,1.822-1.023,2.509
		c-0.69,0.683-1.5,1.028-2.429,1.028C341.203,65.188,340.394,64.84,339.714,64.157z"/>
	<path fill="#FFFFFF" d="M321.13,26.294c3.042,3.126,4.563,7.623,4.563,13.488v25.071h-4.116V40.109c0-4.82-1.177-8.493-3.53-11.019
		c-2.354-2.522-5.646-3.777-9.863-3.777c-4.823,0-8.646,1.506-11.47,4.517c-2.821,3.013-4.231,7.069-4.231,12.166v22.856h-4.107
		V40.109c0-4.82-1.184-8.493-3.54-11.019c-2.358-2.522-5.644-3.777-9.864-3.777c-4.824,0-8.645,1.506-11.473,4.517
		c-2.82,3.013-4.229,7.069-4.229,12.166v22.856h-4.115V21.94h3.949v9.206c1.422-3.011,3.547-5.354,6.373-7.029
		c2.822-1.668,6.174-2.504,10.066-2.504c3.895,0,7.191,0.878,9.907,2.628c2.713,1.756,4.646,4.329,5.802,7.728
		c1.422-3.178,3.652-5.701,6.693-7.562c3.043-1.863,6.596-2.793,10.648-2.793C313.901,21.613,318.086,23.172,321.13,26.294z"/>
	<path fill="#FFFFFF" d="M209.985,62.389c-3.261-1.863-5.821-4.451-7.688-7.768c-1.861-3.312-2.796-7.055-2.796-11.223
		c0-4.166,0.936-7.904,2.796-11.223c1.868-3.319,4.427-5.909,7.688-7.771c3.258-1.863,6.92-2.793,10.973-2.793
		c4.059,0,7.715,0.931,10.977,2.793c3.262,1.862,5.822,4.451,7.688,7.771c1.862,3.317,2.788,7.057,2.788,11.223
		c0,4.168-0.926,7.908-2.788,11.223c-1.866,3.314-4.427,5.904-7.688,7.768c-3.261,1.861-6.917,2.799-10.977,2.799
		C216.905,65.188,213.243,64.25,209.985,62.389z M229.795,59.184c2.604-1.535,4.659-3.666,6.165-6.414
		c1.505-2.736,2.262-5.861,2.262-9.369c0-3.51-0.757-6.629-2.262-9.376c-1.506-2.736-3.561-4.877-6.165-6.408
		c-2.6-1.537-5.544-2.301-8.838-2.301c-3.284,0-6.233,0.765-8.837,2.301c-2.6,1.53-4.663,3.671-6.167,6.408
		c-1.509,2.748-2.254,5.869-2.254,9.376s0.745,6.633,2.254,9.369c1.504,2.748,3.567,4.879,6.167,6.414
		c2.604,1.537,5.553,2.303,8.837,2.303C224.251,61.486,227.195,60.721,229.795,59.184z"/>
	<path fill="#FFFFFF" d="M172.866,41.918l-11.188,10.193v12.742h-4.108v-61h4.108v43.165L189.14,21.94h5.263l-18.494,17.349
		l20.301,25.564h-5.095L172.866,41.918z"/>
	<path fill="#FFFFFF" d="M119.255,63.626c-3.114-1.044-5.557-2.356-7.307-3.953l1.884-3.289c1.759,1.485,4.018,2.72,6.784,3.704
		c2.776,0.988,5.655,1.479,8.678,1.479c4.325,0,7.522-0.713,9.571-2.141c2.063-1.425,3.087-3.395,3.087-5.915
		c0-1.812-0.562-3.233-1.688-4.276c-1.122-1.039-2.5-1.808-4.147-2.303c-1.648-0.49-3.925-1.013-6.824-1.56
		c-3.402-0.604-6.14-1.261-8.223-1.974c-2.084-0.709-3.865-1.862-5.346-3.455c-1.481-1.59-2.214-3.777-2.214-6.577
		c0-3.397,1.409-6.21,4.228-8.429c2.831-2.213,6.838-3.326,12.048-3.326c2.739,0,5.452,0.381,8.14,1.151
		c2.687,0.769,4.877,1.778,6.574,3.04l-1.891,3.287c-1.753-1.26-3.753-2.22-5.999-2.878c-2.246-0.654-4.552-0.986-6.913-0.986
		c-3.992,0-7.013,0.743-9.036,2.22c-2.032,1.484-3.043,3.425-3.043,5.839c0,1.919,0.577,3.409,1.728,4.477
		c1.154,1.069,2.56,1.869,4.232,2.39c1.67,0.523,4.014,1.08,7.026,1.685c3.346,0.604,6.046,1.245,8.104,1.931
		c2.052,0.688,3.796,1.799,5.223,3.329c1.418,1.539,2.134,3.646,2.134,6.33c0,3.566-1.481,6.418-4.438,8.55
		c-2.962,2.146-7.129,3.211-12.5,3.211C125.676,65.188,122.383,64.666,119.255,63.626z"/>
	<path fill="#FFFFFF" d="M100.842,21.94v42.914h-3.945v-9.207c-1.426,3.015-3.533,5.361-6.33,7.031
		c-2.792,1.672-6.081,2.508-9.867,2.508c-5.585,0-9.976-1.561-13.151-4.687c-3.177-3.128-4.765-7.619-4.765-13.481V21.94h4.102
		v24.746c0,4.822,1.24,8.498,3.707,11.018c2.467,2.521,5.946,3.783,10.439,3.783c4.825,0,8.642-1.508,11.469-4.524
		c2.823-3.014,4.231-7.067,4.231-12.165V21.94H100.842z"/>
	<path fill="#FFFFFF" d="M29.286,61.95c-0.298,0-0.594-0.007-0.887-0.021c-0.242-0.014-0.493-0.031-0.729-0.053
		c-1.066-0.093-2.11-0.275-3.115-0.547c-7.216-1.938-12.667-8.188-13.407-15.819c-0.059-0.586-0.091-1.185-0.091-1.78
		c0-0.58,0.033-1.147,0.087-1.715c3.404,2.213,7.47,3.495,11.833,3.495c1.464,0,2.906-0.146,4.294-0.427
		c2.661-0.534,5.151-1.555,7.376-2.964c0.092-0.058,0.173-0.114,0.266-0.177c0.429-0.277,0.842-0.571,1.253-0.881
		c2.795-1.75,6.104-2.762,9.644-2.762c0.208,0,0.419,0.01,0.632,0.012c0.077,0,0.169,0.006,0.253,0.011
		c1.321,0.062,2.606,0.269,3.84,0.604c-0.048-0.229-0.102-0.448-0.161-0.669c-0.287-1.121-0.663-2.206-1.124-3.247
		c-1.161-2.66-2.838-5.048-4.91-7.025c-0.988-0.946-2.066-1.802-3.221-2.551c-3.406-2.21-7.47-3.495-11.835-3.495
		c-9.129,0-16.95,5.622-20.191,13.595c-0.507,1.256-0.91,2.568-1.177,3.934c-0.135,0.686-0.239,1.381-0.312,2.09
		C7.593,41.684,7.58,41.82,7.57,41.945c-0.043,0.59-0.07,1.181-0.07,1.785c0,0.05,0.005,0.102,0.005,0.152
		c0.004,0.549,0.026,1.092,0.067,1.628c0.814,10.048,8.449,18.166,18.263,19.732c0.605,0.091,1.219,0.166,1.838,0.207
		c0.537,0.044,1.069,0.06,1.612,0.06c0.218,0,0.439,0,0.656-0.004c6.729-0.199,12.669-3.468,16.526-8.429l-2.555-2.507
		C40.586,59.038,35.288,61.95,29.286,61.95z M28.469,31.163c-6.011,0-11.549,2.034-15.962,5.449
		c2.766-6.53,9.232-11.111,16.779-11.111c4.154,0,7.985,1.396,11.061,3.744c1.03,0.792,1.976,1.69,2.82,2.676
		c0.746,0.877,1.408,1.826,1.98,2.834c-0.053,0-0.112,0.002-0.164,0.004c-0.944,0.031-1.88,0.133-2.801,0.286
		c-0.226,0.035-0.447,0.076-0.666,0.119c-2.667,0.537-5.159,1.555-7.38,2.966c-0.52,0.335-1.03,0.685-1.514,1.06
		c-2.801,1.748-6.1,2.756-9.643,2.756H22.97c-3.926,0-7.569-1.243-10.548-3.358c5.182-4.369,11.874-7,19.179-7
		c0.638,0,1.263,0.021,1.893,0.057C31.87,31.331,30.192,31.163,28.469,31.163z"/>
</g>
</svg>
